<?xml version="1.0" standalone="no"?>
<!DOCTYPE svg PUBLIC "-//W3C//DTD SVG 20010904//EN"
 "http://www.w3.org/TR/2001/REC-SVG-20010904/DTD/svg10.dtd">
<svg version="1.0" xmlns="http://www.w3.org/2000/svg"
 width="260.000000pt" height="260.000000pt" viewBox="0 0 260.000000 260.000000"
 preserveAspectRatio="xMidYMid meet">
<metadata>
Created by potrace 1.14, written by Peter Selinger 2001-2017
</metadata>
<g transform="translate(0.000000,260.000000) scale(0.100000,-0.100000)"
fill="#000000" stroke="none">
<path d="M0 1300 l0 -1300 1300 0 1300 0 0 1300 0 1300 -1300 0 -1300 0 0
-1300z m788 889 l2 -267 31 -6 c26 -5 30 -10 27 -33 -3 -27 -4 -28 -68 -28
-59 0 -65 2 -68 22 -3 21 -4 21 -59 -8 -96 -51 -191 -34 -261 45 -93 106 -55
289 72 347 76 34 181 22 239 -29 17 -15 18 -12 15 74 l-3 89 -38 3 c-39 3 -54
20 -43 47 5 13 20 15 78 13 l73 -3 3 -266z m619 81 c55 -33 66 -69 71 -217 l4
-131 35 -7 c30 -5 34 -9 31 -33 -3 -26 -5 -27 -62 -27 -48 0 -61 4 -70 20 -6
11 -11 21 -11 22 -1 1 -27 -11 -59 -27 -136 -69 -270 -14 -270 110 0 62 23 96
85 128 39 20 56 23 142 20 86 -3 97 -1 97 14 0 33 -23 67 -53 78 -42 14 -59
13 -124 -10 -72 -25 -80 -25 -93 1 -9 16 -8 25 6 40 24 27 66 37 159 38 63 1
87 -3 112 -19z m787 -6 c9 -8 16 -23 16 -31 0 -9 -66 -83 -147 -165 l-147
-148 112 0 112 0 0 29 c0 40 25 64 51 51 15 -9 19 -22 19 -68 0 -32 -5 -63
-12 -70 -8 -8 -64 -12 -184 -12 -166 0 -173 1 -188 22 -11 16 -12 26 -4 42 5
12 74 85 152 164 l141 143 -110 -3 -110 -3 -5 -40 c-9 -75 -70 -52 -70 28 0
77 0 77 190 77 140 0 171 -3 184 -16z m-1406 -875 l2 -267 31 -6 c26 -5 30
-10 27 -33 -3 -27 -4 -28 -68 -28 -58 0 -65 2 -68 21 -3 20 -4 20 -59 -8 -162
-81 -331 36 -309 215 12 110 91 187 196 195 72 5 95 0 144 -33 l37 -25 -3 88
-3 87 -38 3 c-39 3 -54 20 -43 47 5 13 20 15 78 13 l73 -3 3 -266z m1150 219
c7 -7 12 -40 12 -80 l0 -68 99 0 c116 0 131 -4 131 -35 0 -31 -15 -35 -131
-35 l-99 0 0 -92 c0 -191 38 -222 200 -162 67 25 73 26 88 10 25 -24 6 -47
-64 -76 -79 -33 -189 -35 -231 -4 -51 37 -63 76 -63 206 l0 117 -51 3 c-96 6
-89 68 8 68 l43 0 0 68 c0 65 10 92 35 92 6 0 16 -5 23 -12z m-547 -130 c50
-15 112 -67 134 -114 38 -80 16 -203 -47 -261 -99 -92 -290 -81 -376 22 -91
111 -49 286 83 346 46 22 148 25 206 7z m-603 -909 l2 -267 31 -6 c26 -5 30
-10 27 -33 -3 -27 -4 -28 -68 -28 -59 0 -65 2 -68 22 -3 21 -4 21 -59 -8 -96
-51 -191 -34 -261 45 -93 106 -55 289 72 347 76 34 181 22 239 -29 17 -15 18
-12 15 74 l-3 89 -38 3 c-39 3 -54 20 -43 47 5 13 20 15 78 13 l73 -3 3 -266z
m571 100 c101 -21 175 -106 169 -192 l-3 -42 -192 -3 c-214 -3 -209 -1 -176
-69 24 -52 65 -73 141 -73 45 0 80 7 123 26 71 29 103 29 107 -3 9 -59 -205
-115 -319 -83 -52 15 -115 73 -135 125 -24 64 -15 162 20 215 33 50 89 88 147
99 62 12 62 12 118 0z m589 -36 c-2 -22 -9 -29 -30 -31 -16 -2 -28 -8 -28 -13
0 -12 112 -291 115 -287 9 9 125 273 125 284 0 8 -15 14 -37 16 -33 3 -38 6
-38 28 0 25 0 25 106 28 88 2 108 0 112 -13 10 -24 -3 -45 -28 -45 -30 0 -25
8 -117 -195 -117 -261 -130 -260 -252 11 -68 150 -85 180 -104 182 -25 4 -37
24 -28 47 4 12 26 15 106 15 l101 0 -3 -27z"/>
<path d="M470 2172 c-85 -85 -52 -222 61 -252 151 -41 252 155 134 259 -32 27
-43 31 -97 31 -57 0 -63 -2 -98 -38z"/>
<path d="M1203 2055 c-81 -35 -66 -130 23 -142 50 -6 104 10 144 44 24 19 30
33 30 63 0 31 -4 39 -22 44 -41 10 -142 6 -175 -9z"/>
<path d="M470 1372 c-111 -111 -11 -293 139 -252 113 30 145 180 56 259 -32
27 -43 31 -97 31 -57 0 -63 -2 -98 -38z"/>
<path d="M1224 1411 c-62 -28 -87 -76 -82 -157 4 -58 8 -68 39 -100 61 -60
156 -66 223 -13 87 68 72 220 -27 268 -53 26 -99 26 -153 2z"/>
<path d="M470 552 c-85 -85 -52 -222 61 -252 151 -41 252 155 134 259 -32 27
-43 31 -97 31 -57 0 -63 -2 -98 -38z"/>
<path d="M1235 600 c-28 -12 -62 -46 -80 -80 l-16 -30 155 0 156 0 -11 27
c-22 60 -74 93 -141 92 -24 0 -52 -4 -63 -9z"/>
</g>
</svg>
